<svg width="100" height="25" viewBox="0 0 100 25" fill="none" xmlns="http://www.w3.org/2000/svg">
<path d="M62.0959 0.135937C58.8436 0.749584 56.747 3.02008 56.4504 6.24172L56.3788 7.03946H58.9254H61.4721L61.5948 6.42582C61.8505 5.05534 62.6789 4.38033 64.1107 4.38033C64.9698 4.38033 65.4505 4.53374 65.9312 4.97352C66.4733 5.46444 66.729 6.01672 66.729 6.74287C66.729 7.55084 66.4733 8.22585 65.9517 8.73722C65.4403 9.25882 65.1437 9.41223 62.4846 10.5475C61.3596 11.0282 60.122 11.6009 59.7334 11.8157C58.7822 12.3475 57.739 13.3191 57.3402 14.0759C56.7879 15.1089 56.7061 15.6817 56.7061 18.6783V21.3579L62.7505 21.3374L68.7949 21.3068L69.8381 19.0567L70.8915 16.8067L73.5098 16.776C74.9621 16.7658 76.1382 16.7658 76.1382 16.7862C76.1382 16.8067 75.6575 17.8397 75.0643 19.0669L74.0007 21.3068L77.928 21.3374L81.8656 21.3579V23.1477V24.9375H84.3202H86.7748V23.0659V21.2045L87.7157 18.9851L88.6566 16.7555L91.4589 16.7351L94.2715 16.7044L94.8544 15.2726C95.601 13.4521 96.5113 11.2634 98.3215 6.88605L99.7636 3.41895V2.00756V0.596172H90.8146H81.8656L81.8451 2.71325L81.8144 4.84056L79.1042 4.87124L76.3939 4.90193L73.6427 10.8236L70.8813 16.7555H66.4017H61.9221V16.4385C61.9221 16.0294 62.1675 15.6305 62.5664 15.3646C62.7505 15.2521 63.7425 14.8021 64.7857 14.3623C67.9869 13.0123 69.1017 12.368 70.2063 11.2429C71.454 9.97474 71.8938 8.63495 71.812 6.37468C71.7609 4.93261 71.5768 4.22692 70.9734 3.19394C70.237 1.91551 68.5904 0.749584 66.8824 0.289349C65.788 -0.00724792 63.2721 -0.0890675 62.0959 0.135937ZM93.6272 4.93261C93.6272 4.97352 90.2828 12.8896 89.1475 15.5282L88.6464 16.7044L87.7157 16.7351L86.7748 16.7658V13.3805V10.0054H84.3202H81.8656V13.3805V16.7555H79.053C77.5087 16.7555 76.2405 16.7351 76.2405 16.7146C76.2405 16.6942 76.5064 16.101 76.8439 15.4055C77.1712 14.7203 78.2757 12.3782 79.3087 10.21C80.3315 8.04175 81.3338 5.96558 81.5179 5.57694L81.8656 4.8917H87.7464C90.9782 4.8917 93.6272 4.91215 93.6272 4.93261Z" fill="#292EFF"/>
<path d="M48.7941 6.56602C52.8135 6.56602 56.1885 9.94108 56.1885 14.3593C56.1885 18.8083 52.8135 22.1833 48.7941 22.1833C47.1679 22.1833 45.8486 21.7538 44.744 21.0481V21.7845H39.7428V0H44.744V7.70127C45.8486 6.99558 47.1679 6.56602 48.7941 6.56602ZM47.8123 18.0105C49.8373 18.0105 51.31 16.4457 51.31 14.3593C51.31 12.3343 49.8373 10.7695 47.8123 10.7695C46.7384 10.7695 45.6645 11.0456 44.744 12.0582V16.7219C45.6645 17.7344 46.7384 18.0105 47.8123 18.0105Z" fill="#1E1E1E"/>
<path d="M30.8233 6.50464C35.6097 6.50464 38.9848 9.78765 38.9848 14.3593C38.9848 18.9617 35.6097 22.1833 30.8233 22.1833C26.0368 22.1833 22.6311 18.9617 22.6311 14.3593C22.6311 9.78765 26.0368 6.50464 30.8233 6.50464ZM30.8233 18.0412C32.879 18.0412 34.3211 16.5378 34.3211 14.3593C34.3211 12.2116 32.879 10.6774 30.8233 10.6774C28.7369 10.6774 27.2948 12.2116 27.2948 14.3593C27.2948 16.5378 28.7369 18.0412 30.8233 18.0412Z" fill="#1E1E1E"/>
<path d="M10.6161 10.0638H21.7845V21.7845H17.9185L17.7037 19.2378C16.2003 21.0788 14.0218 22.1833 11.107 22.1833C4.57167 22.1833 0 17.5503 0 11.5673C0 5.06259 4.78645 0.521606 11.1377 0.521606C16.2616 0.521606 20.6799 3.37506 21.5697 8.3456H16.1082C15.2184 5.9217 13.132 5.21601 11.2604 5.21601C7.67059 5.21601 5.24668 7.76264 5.24668 11.4445C5.24668 14.7275 7.60922 17.4583 11.2911 17.4583C13.715 17.4583 15.556 16.231 16.5992 14.2059L10.6161 14.1446V10.0638Z" fill="#1E1E1E"/>
</svg>
