<svg width="52" height="37" viewBox="0 0 52 37" fill="none" xmlns="http://www.w3.org/2000/svg">
<path d="M0 10C0 4.47715 4.47715 0 10 0H42C47.5228 0 52 4.47715 52 10V27C52 32.5228 47.5228 37 42 37H2C0.895432 37 0 36.1046 0 35V10Z" fill="white" fill-opacity="0.4"/>
<path d="M19.5396 10.3087L12.4473 31.4146H7.47412L16.771 6.53183H19.9497L19.5396 10.3087ZM25.4697 31.4146L18.3433 10.3087L17.916 6.53183H21.1118L30.46 31.4146H25.4697ZM25.145 22.169V25.8775H11.7979V22.169H25.145ZM38.0308 6.53183V31.4146H33.3311V6.53183H38.0308Z" fill="white"/>
</svg>
